<svg width="140" height="140" viewBox="0 0 140 140" fill="none" xmlns="http://www.w3.org/2000/svg">
<rect width="140" height="140" rx="5.70265" fill="#FFD700"/>
<path d="M17.2424 80.6811V54.4671H21.9609V64.391H22.635C22.8347 63.9915 23.1468 63.5921 23.5712 63.1926C23.9956 62.7932 24.5573 62.4686 25.2564 62.219C25.9804 61.9444 26.8916 61.807 27.9901 61.807C29.4381 61.807 30.6989 62.1441 31.7724 62.8182C32.8709 63.4673 33.7198 64.3785 34.319 65.5519C34.9181 66.7003 35.2177 68.0485 35.2177 69.5964V80.6811H30.4992V69.9708C30.4992 68.5728 30.1497 67.5242 29.4506 66.8252C28.7766 66.1261 27.8029 65.7766 26.5296 65.7766C25.0816 65.7766 23.9582 66.2634 23.1593 67.2371C22.3604 68.1858 21.9609 69.5215 21.9609 71.2441V80.6811H17.2424ZM44.4005 81.2054C43.0773 81.2054 41.8915 80.9807 40.8429 80.5314C39.7943 80.057 38.958 79.3829 38.3339 78.5091C37.7347 77.6104 37.4351 76.5244 37.4351 75.2511C37.4351 73.9778 37.7347 72.9168 38.3339 72.068C38.958 71.1942 39.8068 70.5451 40.8804 70.1206C41.9789 69.6713 43.2271 69.4466 44.6252 69.4466H49.7182V68.398C49.7182 67.5242 49.4436 66.8127 48.8944 66.2634C48.3451 65.6892 47.4713 65.4021 46.273 65.4021C45.0996 65.4021 44.2258 65.6767 43.6516 66.226C43.0773 66.7503 42.7029 67.4368 42.5281 68.2857L38.1841 66.8252C38.4836 65.8765 38.958 65.0151 39.6071 64.2412C40.2812 63.4423 41.1675 62.8057 42.266 62.3313C43.3894 61.832 44.75 61.5824 46.3479 61.5824C48.7945 61.5824 50.7293 62.194 52.1524 63.4173C53.5754 64.6407 54.287 66.4132 54.287 68.735V75.663C54.287 76.412 54.6365 76.7865 55.3355 76.7865H56.8335V80.6811H53.6878C52.7641 80.6811 52.0026 80.4565 51.4034 80.0071C50.8042 79.5577 50.5047 78.9585 50.5047 78.2095V78.1721H49.7931C49.6933 78.4717 49.4686 78.8711 49.1191 79.3704C48.7695 79.8448 48.2203 80.2692 47.4713 80.6437C46.7223 81.0182 45.6987 81.2054 44.4005 81.2054ZM45.2244 77.3857C46.5476 77.3857 47.6211 77.0237 48.445 76.2997C49.2938 75.5507 49.7182 74.5645 49.7182 73.3412V72.9667H44.9623C44.0885 72.9667 43.4019 73.154 42.9026 73.5285C42.4033 73.9029 42.1536 74.4272 42.1536 75.1013C42.1536 75.7754 42.4158 76.3246 42.94 76.749C43.4643 77.1735 44.2258 77.3857 45.2244 77.3857ZM58.5982 80.6811V62.1066H63.2419V64.2038H63.9159C64.1906 63.4548 64.6399 62.9055 65.2641 62.556C65.9132 62.2065 66.6622 62.0317 67.511 62.0317H69.7579V66.226H67.4361C66.2378 66.226 65.2516 66.5505 64.4777 67.1996C63.7037 67.8238 63.3168 68.7975 63.3168 70.1206V80.6811H58.5982ZM78.5923 81.2054C77.1193 81.2054 75.7337 80.8434 74.4355 80.1194C73.1622 79.3704 72.1386 78.2844 71.3647 76.8614C70.5908 75.4383 70.2038 73.7157 70.2038 71.6935V71.0943C70.2038 69.0721 70.5908 67.3494 71.3647 65.9264C72.1386 64.5033 73.1622 63.4298 74.4355 62.7058C75.7087 61.9568 77.0943 61.5824 78.5923 61.5824C79.7157 61.5824 80.652 61.7197 81.4009 61.9943C82.1749 62.2439 82.799 62.5685 83.2734 62.968C83.7477 63.3674 84.1097 63.7918 84.3594 64.2412H85.0334V54.4671H89.752V80.6811H85.1083V78.4342H84.4343C84.0098 79.1333 83.3483 79.7699 82.4495 80.3441C81.5757 80.9183 80.29 81.2054 78.5923 81.2054ZM80.0153 77.0861C81.4633 77.0861 82.6742 76.6242 83.6478 75.7005C84.6215 74.7518 85.1083 73.3787 85.1083 71.5811V71.2066C85.1083 69.4091 84.6215 68.0485 83.6478 67.1247C82.6991 66.1761 81.4883 65.7017 80.0153 65.7017C78.5673 65.7017 77.3565 66.1761 76.3828 67.1247C75.4092 68.0485 74.9223 69.4091 74.9223 71.2066V71.5811C74.9223 73.3787 75.4092 74.7518 76.3828 75.7005C77.3565 76.6242 78.5673 77.0861 80.0153 77.0861ZM99.0653 81.2054C97.7421 81.2054 96.5562 80.9807 95.5077 80.5314C94.4591 80.057 93.6227 79.3829 92.9986 78.5091C92.3994 77.6104 92.0998 76.5244 92.0998 75.2511C92.0998 73.9778 92.3994 72.9168 92.9986 72.068C93.6227 71.1942 94.4716 70.5451 95.5451 70.1206C96.6436 69.6713 97.8919 69.4466 99.29 69.4466H104.383V68.398C104.383 67.5242 104.108 66.8127 103.559 66.2634C103.01 65.6892 102.136 65.4021 100.938 65.4021C99.7643 65.4021 98.8905 65.6767 98.3163 66.226C97.7421 66.7503 97.3676 67.4368 97.1928 68.2857L92.8488 66.8252C93.1484 65.8765 93.6227 65.0151 94.2718 64.2412C94.9459 63.4423 95.8322 62.8057 96.9307 62.3313C98.0542 61.832 99.4148 61.5824 101.013 61.5824C103.459 61.5824 105.394 62.194 106.817 63.4173C108.24 64.6407 108.952 66.4132 108.952 68.735V75.663C108.952 76.412 109.301 76.7865 110 76.7865H111.498V80.6811H108.353C107.429 80.6811 106.667 80.4565 106.068 80.0071C105.469 79.5577 105.169 78.9585 105.169 78.2095V78.1721H104.458C104.358 78.4717 104.133 78.8711 103.784 79.3704C103.434 79.8448 102.885 80.2692 102.136 80.6437C101.387 81.0182 100.363 81.2054 99.0653 81.2054ZM99.8891 77.3857C101.212 77.3857 102.286 77.0237 103.11 76.2997C103.959 75.5507 104.383 74.5645 104.383 73.3412V72.9667H99.627C98.7532 72.9667 98.0666 73.154 97.5673 73.5285C97.068 73.9029 96.8184 74.4272 96.8184 75.1013C96.8184 75.7754 97.0805 76.3246 97.6048 76.749C98.1291 77.1735 98.8905 77.3857 99.8891 77.3857ZM113.263 80.6811V54.4671H117.981V80.6811H113.263Z" fill="#323232"/>
</svg>
